<svg width="24" height="24" viewBox="0 0 24 24" fill="none" xmlns="http://www.w3.org/2000/svg">
<g clip-path="url(#clip0_1507_192)">
<path fill-rule="evenodd" clip-rule="evenodd" d="M12.0005 0C5.38162 0 -0.00107956 5.38303 -0.00107956 11.9999C-0.00107956 18.6168 5.38162 24 12.0005 24C18.6172 24 23.9999 18.6168 23.9999 11.9999C24 5.38303 18.6172 0 12.0005 0Z" fill="#FF405C"/>
<path fill-rule="evenodd" clip-rule="evenodd" d="M12.4283 23.9914C18.1097 23.7913 22.7982 19.6229 23.8011 14.1791L17.3336 7.71166C17.2971 7.66998 17.2539 7.63305 17.2041 7.60258L13.0886 5.07555C12.9161 4.96858 12.6972 4.96445 12.5202 5.06378C12.3411 5.16316 12.2327 5.35112 12.2327 5.55456V14.4796C12.0315 14.4214 11.8081 14.3849 11.5626 14.3727C10.8506 14.3375 10.0035 14.5054 9.18088 14.8457C8.35822 15.186 7.64169 15.6641 7.16183 16.1928C6.58021 16.8313 6.39004 17.4946 6.62446 18.0599C6.70968 18.2657 6.83966 18.4307 6.99843 18.5616L12.4283 23.9914Z" fill="#D01273"/>
<path fill-rule="evenodd" clip-rule="evenodd" d="M11.8921 16.4268C11.5273 16.8289 10.9368 17.2165 10.2756 17.4908C9.61213 17.7646 8.92213 17.9066 8.3781 17.8794C7.9491 17.8583 7.70802 17.7354 7.66382 17.63C7.62182 17.525 7.70582 17.2667 7.9933 16.9489C8.35822 16.5473 8.94866 16.1591 9.60988 15.8853C10.2733 15.6111 10.9655 15.4696 11.5073 15.4963C11.9363 15.5178 12.1774 15.6406 12.2216 15.7457C12.2637 15.8512 12.1796 16.1089 11.8921 16.4268ZM17.2041 7.60258L13.0886 5.07555C12.9161 4.96858 12.6972 4.96445 12.5202 5.06378C12.3411 5.16316 12.2327 5.35112 12.2327 5.55456V14.4796C12.0315 14.4214 11.8081 14.3849 11.5626 14.3727C10.8506 14.3375 10.0035 14.5054 9.18088 14.8457C8.35822 15.186 7.64169 15.6641 7.16183 16.1928C6.58021 16.8313 6.39004 17.4946 6.62446 18.0599C6.92746 18.7916 7.79652 19.0077 8.51305 19.0077C9.18313 19.0077 9.95493 18.8408 10.7046 18.5305C11.5273 18.1902 12.2438 17.7116 12.7237 17.1833C13.1704 16.6925 13.3584 16.1999 13.3562 15.6725V6.56012L16.6159 8.56112C16.879 8.72378 17.2262 8.64086 17.3877 8.37601C17.5513 8.11164 17.4695 7.76519 17.2041 7.60258Z" fill="white"/>
</g>
<defs>
<clipPath id="clip0_1507_192">
<rect width="24" height="24" fill="white"/>
</clipPath>
</defs>
</svg>
