<svg width="33" height="33" viewBox="0 0 33 33" fill="none" xmlns="http://www.w3.org/2000/svg">
<path d="M28.1673 4.83321C21.7237 -1.61042 11.2764 -1.61042 4.83279 4.83321C-1.61093 11.2768 -1.61093 21.7241 4.83279 28.1677C11.2764 34.6113 21.7237 34.6113 28.1673 28.1677C34.6109 21.7241 34.6109 11.2768 28.1673 4.83321ZM7.53247 28.025C6.56157 27.3022 5.69799 26.4389 4.97528 25.468C7.15562 23.8455 9.33652 22.2237 11.517 20.6015C11.8165 21.004 11.9964 21.1839 12.3987 21.4831C10.7766 23.6638 9.15449 25.8443 7.53247 28.025ZM19.8519 19.8524C18.0008 21.7035 14.9992 21.7034 13.1482 19.8524C11.297 18.0012 11.297 14.9997 13.1482 13.1486C14.9993 11.2974 18.0008 11.2974 19.8519 13.1486C21.703 14.9997 21.7031 18.0011 19.8519 19.8524ZM21.4829 12.3993C21.1834 11.9968 21.0035 11.8168 20.6013 11.5178C22.2233 9.33722 23.8456 7.1567 25.4675 4.97589C26.4384 5.69859 27.3019 6.56198 28.0246 7.53298C25.8444 9.15548 23.6634 10.7771 21.4829 12.3993Z" fill="black"/>
</svg>
