<svg width="23" height="19" viewBox="0 0 23 19" fill="none" xmlns="http://www.w3.org/2000/svg">
<g filter="url(#filter0_d_1505_42)">
<rect x="3.30557" y="0.808594" width="16.1746" height="11.3222" rx="1.58511" fill="#484848"/>
</g>
<path d="M6.33833 9.80859H7.26028V7.35005H9.12037V6.59793H7.26028V4.94003H9.64604V4.18791H6.33833V9.80859ZM12.1341 9.80859C12.0748 9.80859 12.0263 9.78972 11.9885 9.75198C11.9562 9.71424 11.94 9.66841 11.94 9.6145V5.42527L10.7107 6.37148C10.6622 6.40383 10.6137 6.41731 10.5652 6.41192C10.5166 6.40114 10.4735 6.37148 10.4358 6.32296L10.0961 5.88624C10.0637 5.83772 10.0503 5.7865 10.0557 5.73259C10.0664 5.67867 10.0961 5.63554 10.1446 5.60319L11.9562 4.20408C11.9885 4.17712 12.0209 4.16095 12.0532 4.15556C12.0856 4.15017 12.1206 4.14747 12.1584 4.14747H12.87C12.924 4.14747 12.9698 4.16634 13.0075 4.20408C13.0453 4.24182 13.0641 4.28765 13.0641 4.34157V9.6145C13.0641 9.66841 13.0453 9.71424 13.0075 9.75198C12.9698 9.78972 12.924 9.80859 12.87 9.80859H12.1341ZM15.8776 9.80859C15.8183 9.80859 15.7698 9.78972 15.7321 9.75198C15.6997 9.71424 15.6835 9.66841 15.6835 9.6145V5.42527L14.4543 6.37148C14.4057 6.40383 14.3572 6.41731 14.3087 6.41192C14.2602 6.40114 14.217 6.37148 14.1793 6.32296L13.8396 5.88624C13.8073 5.83772 13.7938 5.7865 13.7992 5.73259C13.81 5.67867 13.8396 5.63554 13.8882 5.60319L15.6997 4.20408C15.7321 4.17712 15.7644 4.16095 15.7968 4.15556C15.8291 4.15017 15.8642 4.14747 15.9019 4.14747H16.6136C16.6675 4.14747 16.7133 4.16634 16.7511 4.20408C16.7888 4.24182 16.8077 4.28765 16.8077 4.34157V9.6145C16.8077 9.66841 16.7888 9.71424 16.7511 9.75198C16.7133 9.78972 16.6675 9.80859 16.6136 9.80859H15.8776Z" fill="white"/>
<defs>
<filter id="filter0_d_1505_42" x="0.0706453" y="0.808594" width="22.6445" height="17.7921" filterUnits="userSpaceOnUse" color-interpolation-filters="sRGB">
<feFlood flood-opacity="0" result="BackgroundImageFix"/>
<feColorMatrix in="SourceAlpha" type="matrix" values="0 0 0 0 0 0 0 0 0 0 0 0 0 0 0 0 0 0 127 0" result="hardAlpha"/>
<feOffset dy="3.23493"/>
<feGaussianBlur stdDeviation="1.61746"/>
<feComposite in2="hardAlpha" operator="out"/>
<feColorMatrix type="matrix" values="0 0 0 0 0 0 0 0 0 0 0 0 0 0 0 0 0 0 0.25 0"/>
<feBlend mode="normal" in2="BackgroundImageFix" result="effect1_dropShadow_1505_42"/>
<feBlend mode="normal" in="SourceGraphic" in2="effect1_dropShadow_1505_42" result="shape"/>
</filter>
</defs>
</svg>
