<svg width="20" height="19" viewBox="0 0 20 19" fill="none" xmlns="http://www.w3.org/2000/svg">
<g clip-path="url(#clip0_1255_213)">
<path d="M13.9438 13.6284C13.7286 13.6284 13.5128 13.5532 13.3425 13.4012C12.9836 13.0811 12.9621 12.5414 13.2943 12.1957C13.9526 11.5108 14.3152 10.6191 14.3152 9.68505C14.3152 8.75097 13.9526 7.85933 13.2943 7.17438C12.9621 6.82867 12.9836 6.28893 13.3425 5.96885C13.7013 5.6487 14.2615 5.66953 14.5937 6.01516C15.5561 7.01646 16.0861 8.31981 16.0861 9.68505C16.0861 11.0503 15.5561 12.3536 14.5937 13.3549C14.4192 13.5365 14.1819 13.6284 13.9438 13.6284Z" fill="#262626"/>
<path d="M16.3145 16.1751C16.0874 16.1751 15.8604 16.0915 15.6875 15.9244C15.3422 15.5908 15.3429 15.0506 15.6892 14.718C17.0871 13.3748 17.857 11.5874 17.857 9.68494C17.857 7.78252 17.0871 5.99508 15.6892 4.65192C15.3429 4.31926 15.3422 3.77908 15.6875 3.44553C16.0328 3.11187 16.5934 3.1112 16.9397 3.44386C18.6732 5.10945 19.6279 7.32591 19.6279 9.68494C19.6279 12.044 18.6732 14.2604 16.9397 15.926C16.7669 16.0921 16.5407 16.1751 16.3145 16.1751V16.1751Z" fill="#262626"/>
<path d="M4.39084 6.27246H2.36169C1.46514 6.27246 0.738373 6.97266 0.738373 7.83643V11.5331C0.738373 12.3969 1.46514 13.097 2.36169 13.097H4.39084C4.4927 13.097 4.57531 13.0175 4.57531 12.9193V6.45018C4.57531 6.35205 4.4927 6.27246 4.39084 6.27246Z" fill="#262626"/>
<path d="M11.0686 2.57617H10.1831C9.98875 2.57617 9.79974 2.63781 9.6453 2.75159L5.82833 5.56374C5.78269 5.59737 5.75591 5.64955 5.75591 5.70492V13.6653C5.75591 13.7207 5.78269 13.7729 5.82833 13.8065L9.6453 16.6186C9.79974 16.7324 9.98875 16.7941 10.1832 16.7941H11.0686C11.5576 16.7941 11.954 16.4122 11.954 15.941V3.42925C11.954 2.9581 11.5576 2.57617 11.0686 2.57617Z" fill="#262626"/>
</g>
<defs>
<clipPath id="clip0_1255_213">
<rect width="18.8895" height="18.1989" fill="white" transform="translate(0.738373 0.585449)"/>
</clipPath>
</defs>
</svg>
