<svg width="17" height="17" viewBox="0 0 17 17" fill="none" xmlns="http://www.w3.org/2000/svg">
<g clip-path="url(#clip0_1255_218)">
<path d="M3.37164 5.65186H1.56795C0.771015 5.65186 0.125 6.27425 0.125 7.04205V10.328C0.125 11.0958 0.771015 11.7182 1.56795 11.7182H3.37164C3.46218 11.7182 3.53561 11.6474 3.53561 11.5602V5.80983C3.53561 5.7226 3.46218 5.65186 3.37164 5.65186Z" fill="#474747"/>
<path d="M9.30741 2.36621H8.52034C8.34755 2.36621 8.17954 2.421 8.04227 2.52213L4.6494 5.02183C4.60883 5.05172 4.58502 5.0981 4.58502 5.14732V12.2233C4.58502 12.2724 4.60883 12.3189 4.6494 12.3487L8.04227 14.8484C8.17954 14.9495 8.34755 15.0044 8.52037 15.0044H9.30741C9.74209 15.0044 10.0945 14.6649 10.0945 14.2461V3.1245C10.0945 2.7057 9.74209 2.36621 9.30741 2.36621Z" fill="#474747"/>
</g>
<defs>
<clipPath id="clip0_1255_218">
<rect width="16.7907" height="16.1768" fill="white" transform="translate(0.125 0.59668)"/>
</clipPath>
</defs>
</svg>
