<svg width="37" height="37" viewBox="0 0 37 37" fill="none" xmlns="http://www.w3.org/2000/svg">
<path d="M18.5 29.9479C24.8228 29.9479 29.9484 24.8223 29.9484 18.4996C29.9484 12.1769 24.8228 7.05127 18.5 7.05127C12.1773 7.05127 7.05173 12.1769 7.05173 18.4996C7.05173 24.8223 12.1773 29.9479 18.5 29.9479Z" fill="white"/>
<path d="M18.4999 25.611C16.9838 25.6116 15.5104 25.1094 14.3103 24.1829C13.1103 23.2564 12.2515 21.958 11.8684 20.4911C11.4854 19.0243 11.5997 17.4718 12.1935 16.0768C12.7874 14.6819 13.8271 13.5234 15.1499 12.7827L16.1408 14.546C15.208 15.0679 14.4747 15.8844 14.0557 16.8678C13.6367 17.8511 13.5556 18.9456 13.8253 19.9799C14.095 21.0142 14.7001 21.9299 15.5459 22.5834C16.3917 23.237 17.4304 23.5915 18.4993 23.5915C19.5682 23.5915 20.6069 23.237 21.4527 22.5834C22.2985 21.9299 22.9036 21.0142 23.1733 19.9799C23.443 18.9456 23.3619 17.8511 22.9429 16.8678C22.5239 15.8844 21.7906 15.0679 20.8578 14.546L21.8452 12.7798C23.1691 13.5196 24.2102 14.6778 24.8051 16.0729C25.4 17.4679 25.5152 19.021 25.1325 20.4885C24.7499 21.9561 23.8911 23.2552 22.6908 24.1822C21.4905 25.1092 20.0165 25.6118 18.4999 25.611Z" fill="#14FF00"/>
<path d="M17.4884 10.2324H19.5118V17.8926H17.4884V10.2324Z" fill="#14FF00"/>
</svg>
